<svg xmlns="http://www.w3.org/2000/svg" xml:space="preserve" style="enable-background:new 0 0 438.5 438.5" viewBox="0 0 438.5 438.5"><path d="M409.1 109.2c-19.6-33.6-46.2-60.2-79.8-79.8C295.7 9.8 259.1 0 219.3 0s-76.5 9.8-110.1 29.4C75.6 49 49 75.6 29.4 109.2 9.8 142.8 0 179.5 0 219.3s9.8 76.5 29.4 110.1c19.6 33.6 46.2 60.2 79.8 79.8 33.6 19.6 70.3 29.4 110.1 29.4s76.5-9.8 110.1-29.4c33.6-19.6 60.2-46.2 79.8-79.8 19.6-33.6 29.4-70.3 29.4-110.1-.1-39.8-9.9-76.5-29.5-110.1zm-47.4 150.3-29.1 29.1c-3.6 3.6-7.9 5.4-12.8 5.4s-9.2-1.8-12.8-5.4L219.3 201l-87.6 87.7c-3.6 3.6-7.9 5.4-12.8 5.4s-9.2-1.8-12.8-5.4L77 259.6c-3.6-3.6-5.4-7.9-5.4-12.8s1.8-9.2 5.4-12.8l129.6-129.6c3.6-3.6 7.9-5.4 12.8-5.4s9.2 1.8 12.8 5.4L361.8 234c3.6 3.6 5.4 7.9 5.4 12.8 0 4.8-1.8 9.1-5.5 12.7z" style="fill:#3c3c3c"/></svg>